<?xml version="1.0" encoding="UTF-8"?>
<svg width="512px" height="512px" viewBox="0 0 512 512" version="1.1" xmlns="http://www.w3.org/2000/svg" xmlns:xlink="http://www.w3.org/1999/xlink">
    <title>logo</title>
    <defs>
        <path d="M0.462931995,212.324646 C0.462931995,212.324646 7.91325414,330.560949 118.063665,331 C228.214077,331.434274 235.433399,212.324646 235.433399,212.324646 C235.433399,212.324646 251.069368,115.151885 118.063665,0 C34.4259336,76.767923 -4.77431088,147.542805 0.462931995,212.324646 Z" id="path-1"></path>
        <filter x="-4.2%" y="-3.0%" width="108.5%" height="106.0%" filterUnits="objectBoundingBox" id="filter-2">
            <feOffset dx="20" dy="-20" in="SourceAlpha" result="shadowOffsetInner1"></feOffset>
            <feComposite in="shadowOffsetInner1" in2="SourceAlpha" operator="arithmetic" k2="-1" k3="1" result="shadowInnerInner1"></feComposite>
            <feColorMatrix values="0 0 0 0 0   0 0 0 0 0   0 0 0 0 0  0 0 0 0.2 0" type="matrix" in="shadowInnerInner1"></feColorMatrix>
        </filter>
        <path d="M296.311891,341.046514 C296.311891,341.046514 301.331387,420.704204 375.542893,421 C449.754399,421.292577 454.618264,341.046514 454.618264,341.046514 C454.618264,341.046514 465.152668,275.579668 375.542893,198 C319.193743,249.719779 292.783409,297.40195 296.311891,341.046514 Z" id="path-3"></path>
        <filter x="-6.3%" y="-4.5%" width="112.6%" height="109.0%" filterUnits="objectBoundingBox" id="filter-4">
            <feOffset dx="20" dy="-20" in="SourceAlpha" result="shadowOffsetInner1"></feOffset>
            <feComposite in="shadowOffsetInner1" in2="SourceAlpha" operator="arithmetic" k2="-1" k3="1" result="shadowInnerInner1"></feComposite>
            <feColorMatrix values="0 0 0 0 0   0 0 0 0 0   0 0 0 0 0  0 0 0 0.2 0" type="matrix" in="shadowInnerInner1"></feColorMatrix>
        </filter>
        <path d="M172.219697,455.709877 C172.219697,455.709877 175.755443,511.791749 228.030214,512 C280.304986,512.205985 283.731105,455.709877 283.731105,455.709877 C283.731105,455.709877 291.151565,409.61887 228.030214,355 C188.337731,391.41258 169.734225,424.982539 172.219697,455.709877 Z" id="path-5"></path>
        <filter x="-8.9%" y="-6.4%" width="117.9%" height="112.7%" filterUnits="objectBoundingBox" id="filter-6">
            <feOffset dx="20" dy="-20" in="SourceAlpha" result="shadowOffsetInner1"></feOffset>
            <feComposite in="shadowOffsetInner1" in2="SourceAlpha" operator="arithmetic" k2="-1" k3="1" result="shadowInnerInner1"></feComposite>
            <feColorMatrix values="0 0 0 0 0   0 0 0 0 0   0 0 0 0 0  0 0 0 0.2 0" type="matrix" in="shadowInnerInner1"></feColorMatrix>
        </filter>
    </defs>
    <g id="Page-1" stroke="none" stroke-width="1" fill="none" fill-rule="evenodd">
        <g id="logo">
            <rect id="bg" x="0" y="0" width="512" height="512"></rect>
            <g id="drops" transform="translate(29.000000, 0.000000)">
                <g id="drop3">
                    <use fill="#F782A9" fill-rule="evenodd" xlink:href="#path-1"></use>
                    <use fill="black" fill-opacity="1" filter="url(#filter-2)" xlink:href="#path-1"></use>
                </g>
                <g id="drop2">
                    <use fill="#B48BD9" fill-rule="evenodd" xlink:href="#path-3"></use>
                    <use fill="black" fill-opacity="1" filter="url(#filter-4)" xlink:href="#path-3"></use>
                </g>
                <g id="drop1">
                    <use fill="#4ED9AB" fill-rule="evenodd" xlink:href="#path-5"></use>
                    <use fill="black" fill-opacity="1" filter="url(#filter-6)" xlink:href="#path-5"></use>
                </g>
            </g>
        </g>
    </g>
</svg>