<?xml version="1.0" standalone="no"?>
<!DOCTYPE svg PUBLIC "-//W3C//DTD SVG 20010904//EN"
 "http://www.w3.org/TR/2001/REC-SVG-20010904/DTD/svg10.dtd">
<svg version="1.0" xmlns="http://www.w3.org/2000/svg"
 width="512.000000pt" height="512.000000pt" viewBox="0 0 512.000000 512.000000"
 preserveAspectRatio="xMidYMid meet">
<metadata>
Created by potrace 1.14, written by Peter Selinger 2001-2017
</metadata>
<g transform="translate(0.000000,512.000000) scale(0.100000,-0.100000)"
fill="#000000" stroke="none">
<path d="M1394 5049 c-302 -286 -535 -555 -711 -819 -110 -164 -169 -272 -258
-473 -41 -93 -93 -270 -110 -377 -4 -25 -10 -54 -12 -65 -13 -48 -11 -334 2
-407 60 -340 180 -593 375 -788 221 -221 504 -323 850 -306 119 5 141 8 200
19 90 17 197 54 289 100 64 31 172 113 239 179 187 186 321 468 377 798 19
108 14 311 -10 445 -14 75 -19 96 -47 195 -140 489 -473 985 -974 1449 -38 35
-83 77 -101 93 l-31 30 -78 -73z"/>
<path d="M3934 3032 c-117 -115 -185 -188 -249 -265 -22 -27 -45 -54 -50 -60
-6 -7 -22 -28 -35 -47 -13 -19 -27 -37 -30 -40 -3 -3 -32 -44 -63 -91 -129
-195 -217 -408 -245 -589 -8 -59 -9 -243 0 -302 7 -49 42 -179 58 -213 78
-172 101 -208 186 -301 137 -147 356 -225 593 -211 369 22 608 239 712 647 23
90 31 254 17 360 -32 247 -185 564 -397 824 -72 89 -67 83 -172 192 -70 72
-143 142 -195 186 -20 17 -23 15 -130 -90z"/>
<path d="M2452 1454 c-233 -237 -368 -454 -426 -684 -15 -56 -18 -203 -7 -263
48 -248 177 -414 376 -482 71 -24 243 -29 320 -9 312 81 486 450 380 809 -70
241 -211 447 -479 705 l-46 44 -118 -120z"/>
</g>
</svg>
